<svg height="511pt" viewBox="-95 1 511 511.999" width="511pt" xmlns="http://www.w3.org/2000/svg">
	<g fill="#ffffff">
		<path d="m121.5 383.675781h-28.746094l12.578125 45.96875h28.742188zm0 0"/>
		<path d="m229.492188 383.675781h-28.742188l-12.574219 45.96875h28.746094zm0 0"/>
		<path d="m147.261719 383.675781h27.726562v45.96875h-27.726562zm0 0"/>
		<path d="m115.902344 355.953125c-18.300782-55.785156-35.789063-131.421875-35.789063-195.328125 0-48.269531 7.3125-93.855469 20.59375-128.359375 3.5625-9.261719 7.503907-17.511719 11.765625-24.726563-64.859375 20.65625-111.972656 81.46875-111.972656 153.085938 0 55.667969 34.390625 131.8125 92.253906 195.328125zm0 0"/>
		<path d="m242.132812 160.625c0 63.90625-17.488281 139.539062-35.789062 195.328125h23.148438c57.867187-63.515625 92.253906-139.660156 92.253906-195.328125 0-71.617188-47.113282-132.429688-111.972656-153.085938 4.261718 7.214844 8.203124 15.464844 11.765624 24.726563 13.28125 34.503906 20.59375 80.089844 20.59375 128.359375zm0 0"/>
		<path d="m145.136719 355.953125h31.976562c18.589844-54.226563 37.292969-131.289063 37.292969-195.328125 0-44.945312-6.652344-86.996094-18.742188-118.402344-10.019531-26.042968-23.257812-42.222656-34.539062-42.222656-11.285156 0-24.523438 16.179688-34.542969 42.222656-12.085937 31.40625-18.742187 73.453125-18.742187 118.398438 0 64.046875 18.703125 141.105468 37.296875 195.332031zm0 0"/>
		<path d="m115.78125 478.226562c0 18.621094 15.148438 33.773438 33.773438 33.773438h23.144531c18.625 0 33.773437-15.152344 33.773437-33.773438v-20.855468h-90.691406zm0 0"/>
	</g>
</svg>