<?xml version="1.0" encoding="iso-8859-1"?>
<svg version="1.1" id="Capa_1" xmlns="http://www.w3.org/2000/svg" xmlns:xlink="http://www.w3.org/1999/xlink" x="0px" y="0px"
	 viewBox="0 0 612.001 612.001" style="enable-background:new 0 0 612.001 612.001;" xml:space="preserve">
<g>
	<path fill="#fff" d="M89.625,522.375c28.093,28.093,60.815,50.153,97.257,65.566C224.626,603.906,264.703,612,306,612
		c41.297,0,81.374-8.095,119.118-24.058c36.442-15.413,69.163-37.474,97.257-65.566c28.093-28.093,50.153-60.816,65.566-97.257
		c15.964-37.744,24.059-77.821,24.059-119.117s-8.095-81.374-24.059-119.117c-15.413-36.442-37.473-69.163-65.566-97.257
		c-28.093-28.093-60.816-50.153-97.257-65.566C387.374,8.095,347.297,0.001,306,0.001c-41.297,0-81.373,8.095-119.117,24.059
		c-36.442,15.413-69.163,37.474-97.257,65.566c-28.093,28.093-50.153,60.815-65.566,97.257C8.095,224.626,0,264.703,0,306
		s8.095,81.374,24.059,119.118C39.473,461.56,61.532,494.282,89.625,522.375z M549.239,172.883
		c16.929,30.868,28.155,65.307,32.257,101.902c1.149,10.246,1.739,20.662,1.739,31.215c0,1.798-0.017,3.591-0.051,5.38
		c-1.056,55.471-18.406,106.955-47.461,149.865l-14.961-30.499c-3.695-95.359-36.221-73.922-71.087-101.273
		c-24.254-19.027-30.802-45.567-32.541-59.959c-0.731-6.051,2.042-11.987,7.15-15.311L549.239,172.883z M175.027,61.599
		c4.876-2.618,9.839-5.095,14.883-7.425C225.225,37.867,264.549,28.767,306,28.767c52.489,0,101.57,14.589,143.413,39.93
		c-0.913,5.014-4.482,12.723-14.401,24.229c0,0-19.722,29.089-46.682,44.586c-8.501,4.886-19.108-1.31-19.108-11.115V98.101
		c0,0-60.616-11.827-60.616,21.067l25.953,25.953c5.774,5.774,5.774,15.135,0,20.908l-77.09,77.089
		c-3.465,3.466-8.166,5.412-13.067,5.412h-62.201c0,0,5.175,43.244,98.316,65.421s63.573,72.443,56.92,99.055
		c-4.218,16.872-14.676,54.543-21.766,79.858c-2.868,10.24-16.255,12.704-22.584,4.16l-84.832-114.522
		c-2.039-2.753-3.139-6.087-3.139-9.513v-59.777c0,0-100.533-8.871-100.533-124.928c0,0-44.438,16.407-47.843,82.754
		c-0.267,5.196-3.018,9.949-7.415,12.73l-20.397,12.905h-0.001C32.291,194.875,90.536,106.972,175.027,61.599z"/>
</g>
</svg>
